<?xml version="1.0" encoding="UTF-8" standalone="no"?>
<svg
   xmlns:dc="http://purl.org/dc/elements/1.1/"
   xmlns:cc="http://creativecommons.org/ns#"
   xmlns:rdf="http://www.w3.org/1999/02/22-rdf-syntax-ns#"
   xmlns:svg="http://www.w3.org/2000/svg"
   xmlns="http://www.w3.org/2000/svg"
   xmlns:sodipodi="http://sodipodi.sourceforge.net/DTD/sodipodi-0.dtd"
   xmlns:inkscape="http://www.inkscape.org/namespaces/inkscape"
   version="1.1"
   id="Layer_1"
   x="0px"
   y="0px"
   viewBox="0 0 16 16"
   xml:space="preserve"
   sodipodi:docname="arrow.svg"
   inkscape:version="1.0.1 (c497b03c, 2020-09-10)"><defs
     id="defs840" /><sodipodi:namedview
     pagecolor="#ffffff"
     bordercolor="#666666"
     borderopacity="1"
     objecttolerance="10"
     gridtolerance="10"
     guidetolerance="10"
     inkscape:pageopacity="0"
     inkscape:pageshadow="2"
     inkscape:window-width="1440"
     inkscape:window-height="799"
     id="namedview838"
     showgrid="false"
     inkscape:zoom="38.3125"
     inkscape:cx="8"
     inkscape:cy="8"
     inkscape:window-x="0"
     inkscape:window-y="73"
     inkscape:window-maximized="1"
     inkscape:current-layer="Layer_1" /><path
     d="M10 16H6a1 1 0 0 1-1-1V8H3a1 1 0 0 1-.768-1.64l5-6C7.422.132 7.71 0 8 0c.289 0 .578.132.768.36l5 6A1 1 0 0 1 13 8h-2v7a1 1 0 0 1-1 1zm-3-2h2V7a1 1 0 0 1 1-1h.865L8 2.562 5.135 6H6a1 1 0 0 1 1 1v7z"
     id="path833"
     style="fill:#000000;fill-opacity:1" /><metadata
     id="metadata835"><rdf:RDF><rdf:Description
         about="https://iconscout.com/legal#licenses"
         dc:title="arrow-,up"
         dc:description="arrow-,up"
         dc:publisher="Iconscout"
         dc:date="2018-06-20"
         dc:format="image/svg+xml"
         dc:language="en"><dc:creator><rdf:Bag><rdf:li>Those Icons</rdf:li></rdf:Bag></dc:creator></rdf:Description><cc:Work
         rdf:about=""><dc:format>image/svg+xml</dc:format><dc:type
           rdf:resource="http://purl.org/dc/dcmitype/StillImage" /></cc:Work></rdf:RDF></metadata></svg>
