<?xml version="1.0" encoding="UTF-8"?><svg xmlns="http://www.w3.org/2000/svg" xmlns:xlink="http://www.w3.org/1999/xlink" version="1.1" id="Layer_1" x="0px" y="0px" viewBox="0 0 16 16" xml:space="preserve"><path d="M10 16H6a1 1 0 0 1-1-1V8H3a1 1 0 0 1-.768-1.64l5-6C7.422.132 7.71 0 8 0c.289 0 .578.132.768.36l5 6A1 1 0 0 1 13 8h-2v7a1 1 0 0 1-1 1zm-3-2h2V7a1 1 0 0 1 1-1h.865L8 2.562 5.135 6H6a1 1 0 0 1 1 1v7z"/><metadata><rdf:RDF xmlns:rdf="http://www.w3.org/1999/02/22-rdf-syntax-ns#" xmlns:rdfs="http://www.w3.org/2000/01/rdf-schema#" xmlns:dc="http://purl.org/dc/elements/1.1/"><rdf:Description about="https://iconscout.com/legal#licenses" dc:title="arrow-,up" dc:description="arrow-,up" dc:publisher="Iconscout" dc:date="2018-06-20" dc:format="image/svg+xml" dc:language="en"><dc:creator><rdf:Bag><rdf:li>Those Icons</rdf:li></rdf:Bag></dc:creator></rdf:Description></rdf:RDF></metadata></svg>