<?xml version="1.0" encoding="UTF-8" standalone="no"?>
<svg
   xmlns:dc="http://purl.org/dc/elements/1.1/"
   xmlns:cc="http://creativecommons.org/ns#"
   xmlns:rdf="http://www.w3.org/1999/02/22-rdf-syntax-ns#"
   xmlns:svg="http://www.w3.org/2000/svg"
   xmlns="http://www.w3.org/2000/svg"
   xmlns:sodipodi="http://sodipodi.sourceforge.net/DTD/sodipodi-0.dtd"
   xmlns:inkscape="http://www.inkscape.org/namespaces/inkscape"
   viewBox="0 0 30 30"
   version="1.1"
   id="svg925"
   sodipodi:docname="moon.svg"
   inkscape:version="1.0.1 (c497b03c, 2020-09-10)">
  <metadata
     id="metadata931">
    <rdf:RDF>
      <cc:Work
         rdf:about="">
        <dc:format>image/svg+xml</dc:format>
        <dc:type
           rdf:resource="http://purl.org/dc/dcmitype/StillImage" />
      </cc:Work>
    </rdf:RDF>
  </metadata>
  <defs
     id="defs929" />
  <sodipodi:namedview
     pagecolor="#ffffff"
     bordercolor="#666666"
     borderopacity="1"
     objecttolerance="10"
     gridtolerance="10"
     guidetolerance="10"
     inkscape:pageopacity="0"
     inkscape:pageshadow="2"
     inkscape:window-width="1440"
     inkscape:window-height="773"
     id="namedview927"
     showgrid="false"
     inkscape:zoom="20.433333"
     inkscape:cx="14.119086"
     inkscape:cy="11.231648"
     inkscape:window-x="0"
     inkscape:window-y="23"
     inkscape:window-maximized="0"
     inkscape:current-layer="svg925" />
  <path
     fill="#464646"
     d="M25.91,19.31A11.42,11.42,0,0,1,15.42,26,11.24,11.24,0,0,1,4,15,11.17,11.17,0,0,1,14.05,4a1,1,0,0,1,1,.56,1,1,0,0,1-.21,1.15,7.6,7.6,0,0,0-2.35,5.48A8,8,0,0,0,20.63,19a8.36,8.36,0,0,0,3.9-1,1,1,0,0,1,1.38,1.29Z"
     id="path923"
     style="fill:#ffffff" />
</svg>
