<?xml version="1.0" encoding="UTF-8" standalone="no"?>
<svg
   xmlns:osb="http://www.openswatchbook.org/uri/2009/osb"
   xmlns:dc="http://purl.org/dc/elements/1.1/"
   xmlns:cc="http://creativecommons.org/ns#"
   xmlns:rdf="http://www.w3.org/1999/02/22-rdf-syntax-ns#"
   xmlns:svg="http://www.w3.org/2000/svg"
   xmlns="http://www.w3.org/2000/svg"
   xmlns:sodipodi="http://sodipodi.sourceforge.net/DTD/sodipodi-0.dtd"
   xmlns:inkscape="http://www.inkscape.org/namespaces/inkscape"
   version="1.1"
   id="svg834"
   sodipodi:docname="tab.svg"
   width="200"
   height="20"
   inkscape:version="1.0.1 (c497b03c, 2020-09-10)">
  <metadata
     id="metadata840">
    <rdf:RDF>
      <cc:Work
         rdf:about="">
        <dc:format>image/svg+xml</dc:format>
        <dc:type
           rdf:resource="http://purl.org/dc/dcmitype/StillImage" />
        <dc:title></dc:title>
      </cc:Work>
    </rdf:RDF>
  </metadata>
  <defs
     id="defs838">
    <inkscape:path-effect
       effect="bspline"
       id="path-effect2823"
       is_visible="true"
       lpeversion="1"
       weight="33.333333"
       steps="2"
       helper_size="0"
       apply_no_weight="true"
       apply_with_weight="true"
       only_selected="false" />
    <inkscape:path-effect
       effect="bspline"
       id="path-effect2804"
       is_visible="true"
       lpeversion="1"
       weight="33.333333"
       steps="2"
       helper_size="0"
       apply_no_weight="true"
       apply_with_weight="true"
       only_selected="false" />
    <linearGradient
       id="linearGradient844"
       osb:paint="solid">
      <stop
         style="stop-color:#000000;stop-opacity:1;"
         offset="0"
         id="stop842" />
    </linearGradient>
  </defs>
  <sodipodi:namedview
     pagecolor="#ffffff"
     bordercolor="#666666"
     borderopacity="1"
     objecttolerance="10"
     gridtolerance="10"
     guidetolerance="10"
     inkscape:pageopacity="0"
     inkscape:pageshadow="2"
     inkscape:window-width="1440"
     inkscape:window-height="799"
     id="namedview836"
     showgrid="false"
     fit-margin-top="0"
     fit-margin-left="0"
     fit-margin-right="0"
     fit-margin-bottom="0"
     inkscape:zoom="2.7025217"
     inkscape:cx="145.56832"
     inkscape:cy="40.044857"
     inkscape:window-x="0"
     inkscape:window-y="23"
     inkscape:window-maximized="1"
     inkscape:current-layer="svg834" />
  <path
     style="fill:none;stroke:#000000;stroke-width:0.19365px;stroke-linecap:butt;stroke-linejoin:miter;stroke-opacity:1"
     d="m 2.6448294,20.186158 c 0,0 0,0 0.052294,-0.375445 0.052294,-0.375444 0.1568924,-1.126408 0.2091997,-3.504522 0.052307,-2.378114 0.052307,-6.3832451 0.052307,-8.9143267 0,-2.5310816 0,-3.5879913 1.2291916,-4.1165274 1.2291917,-0.528536 3.6872051,-0.528536 12.7612943,-0.528536 9.074088,0 24.763251,0 33.994265,0 9.231014,0 12.002769,0 13.440903,0.5563726 1.438135,0.5563727 1.542727,1.6688876 1.595019,4.1026464 0.05229,2.4337588 0.05229,6.1885691 0.07845,8.5388671 0.02616,2.350298 0.07846,3.295951 0.104603,3.768711 0.02615,0.47276 0.02615,0.47276 0.02615,0.47276"
     id="path2802"
     inkscape:path-effect="#path-effect2804"
     inkscape:original-d="m 2.6448294,20.186158 c 0,0 2.7e-4,1.43e-4 0,0 0.1048703,-0.75085 0.2094707,-1.501813 0.3138011,-2.252932 2.599e-4,-4.005149 2.599e-4,-8.0102801 0,-12.0156327 2.599e-4,-1.0568106 2.599e-4,-2.1137203 0,-3.1707924 2.4583833,1.412e-4 4.9163967,1.412e-4 7.3742005,0 15.690373,1.412e-4 31.379536,1.412e-4 47.06938,0 2.772184,1.412e-4 5.543939,1.412e-4 8.315593,0 0.10486,1.1127222 0.209461,2.2252364 0.313791,3.3376762 2.7e-4,3.7551016 2.7e-4,7.5099119 0,11.2646569 0.0526,0.945835 0.10486,1.89149 0.156906,2.837024 2.6e-4,1.43e-4 0,0 0,0"
     sodipodi:nodetypes="cccccccccccc" />
  <path
     style="fill:none;stroke:#000000;stroke-width:0.188599px;stroke-linecap:butt;stroke-linejoin:miter;stroke-opacity:1"
     d="m 66.503211,19.930987 c 0,0 -0.212502,-2.185066 -0.212502,-2.185066 0,0 0,0 0,0 0,-3.884558 0,-7.7689801 0,-10.2238155 0,-2.4548354 0,-3.4799068 1.202115,-3.9925213 1.202115,-0.5126145 3.605991,-0.5126145 12.480205,-0.5126145 8.874214,0 24.217791,0 33.245471,0 9.02769,0 11.73839,0 13.14485,0.539613 1.40645,0.539613 1.50875,1.6186138 1.55989,3.9790582 0.0511,2.3604444 0.0511,6.0021461 0.0767,8.2816421 0.0256,2.279497 0.0767,3.196667 1.17654,3.655185 1.09982,0.458519 3.24796,0.458519 5.39589,0.458519"
     id="path2802-7"
     inkscape:path-effect="#path-effect2823"
     inkscape:original-d="m 66.503211,19.930987 -0.212502,-2.185066 v 0 c 0,0 2.6e-4,-7.7689801 0,-11.6536754 2.6e-4,-1.0249755 2.6e-4,-2.0500469 0,-3.0752759 2.40423,1.371e-4 4.808106,1.371e-4 7.21177,0 15.344764,1.371e-4 30.688341,1.371e-4 46.032591,0 2.71112,1.371e-4 5.42182,1.371e-4 8.13242,0 0.10256,1.0792027 0.20485,2.1582037 0.30689,3.2371325 2.6e-4,3.6419831 2.6e-4,7.2836848 0,10.9253218 0.0514,0.917342 0.10255,1.834512 0.15344,2.751563 2.1485,1.37e-4 4.29664,1.37e-4 6.44457,0"
     sodipodi:nodetypes="cccccccccccc" />
</svg>
